<?xml version="1.0" standalone="no"?>
<!DOCTYPE svg PUBLIC "-//W3C//DTD SVG 20010904//EN"
 "http://www.w3.org/TR/2001/REC-SVG-20010904/DTD/svg10.dtd">
<svg version="1.0" xmlns="http://www.w3.org/2000/svg"
 width="650.000000pt" height="650.000000pt" viewBox="0 0 650.000000 650.000000"
 preserveAspectRatio="xMidYMid meet">

<g transform="translate(0.000000,650.000000) scale(0.100000,-0.100000)"
fill="#000000" stroke="none">
<path d="M3275 6281 c-3 -6 -21 -11 -40 -11 -19 0 -37 -4 -40 -10 -3 -5 -33
-10 -65 -10 -32 0 -62 5 -65 10 -3 6 -50 10 -106 10 -59 0 -99 -4 -99 -10 0
-6 -27 -10 -60 -10 -33 0 -60 -4 -60 -10 0 -5 -22 -10 -50 -10 -27 0 -50 -4
-50 -10 0 -5 -22 -10 -50 -10 -27 0 -50 -4 -50 -10 0 -5 -18 -10 -39 -10 -22
0 -43 -4 -46 -10 -3 -5 -17 -10 -31 -10 -13 0 -24 -4 -24 -10 0 -5 -18 -10
-40 -10 -22 0 -40 -4 -40 -10 0 -5 -9 -10 -20 -10 -11 0 -20 -4 -20 -10 0 -5
-18 -10 -40 -10 -22 0 -40 -4 -40 -10 0 -5 -9 -10 -20 -10 -11 0 -20 -4 -20
-10 0 -5 -13 -10 -30 -10 -16 0 -30 -4 -30 -10 0 -5 -9 -10 -20 -10 -11 0 -20
-4 -20 -10 0 -5 -6 -10 -13 -10 -18 0 -67 -24 -67 -32 0 -5 -9 -8 -20 -8 -11
0 -20 -4 -20 -10 0 -5 -9 -10 -20 -10 -11 0 -20 -4 -20 -10 0 -5 -9 -10 -20
-10 -11 0 -20 -4 -20 -10 0 -5 -9 -10 -20 -10 -11 0 -20 -4 -20 -10 0 -5 -9
-10 -20 -10 -11 0 -20 -4 -20 -10 0 -5 -7 -10 -15 -10 -9 0 -25 -9 -37 -20
-12 -11 -28 -20 -35 -20 -7 0 -13 -4 -13 -10 0 -5 -9 -10 -20 -10 -11 0 -20
-4 -20 -8 0 -5 -12 -15 -27 -23 -16 -8 -37 -22 -47 -31 -11 -10 -26 -18 -33
-18 -7 0 -13 -4 -13 -8 0 -5 -12 -15 -27 -23 -16 -8 -41 -26 -58 -41 -16 -16
-34 -28 -38 -28 -5 0 -36 -26 -69 -57 -32 -32 -65 -60 -71 -62 -17 -5 -337
-324 -337 -336 0 -5 -18 -28 -40 -50 -21 -22 -39 -44 -40 -50 0 -5 -14 -24
-30 -42 -17 -18 -30 -36 -30 -41 0 -5 -9 -17 -20 -27 -11 -10 -20 -23 -20 -29
0 -6 -12 -24 -28 -41 -15 -16 -38 -51 -51 -77 -13 -27 -28 -48 -33 -48 -4 0
-8 -9 -8 -20 0 -11 -4 -20 -10 -20 -5 0 -10 -6 -10 -13 0 -7 -9 -23 -20 -35
-11 -12 -20 -28 -20 -37 0 -8 -4 -15 -10 -15 -5 0 -10 -9 -10 -20 0 -11 -4
-20 -10 -20 -5 0 -10 -9 -10 -20 0 -11 -4 -20 -10 -20 -5 0 -10 -9 -10 -20 0
-11 -4 -20 -10 -20 -5 0 -10 -9 -10 -20 0 -11 -4 -20 -10 -20 -5 0 -10 -9 -10
-20 0 -11 -4 -20 -10 -20 -5 0 -10 -9 -10 -20 0 -11 -4 -20 -10 -20 -5 0 -10
-9 -10 -20 0 -11 -4 -20 -10 -20 -5 0 -10 -13 -10 -30 0 -16 -3 -30 -7 -30
-11 0 -33 -50 -33 -71 0 -10 -4 -21 -10 -24 -5 -3 -10 -19 -10 -36 0 -16 -4
-29 -10 -29 -5 0 -10 -18 -10 -40 0 -22 -4 -40 -10 -40 -5 0 -10 -13 -10 -30
0 -16 -4 -30 -10 -30 -5 0 -10 -18 -10 -40 0 -22 -4 -40 -10 -40 -6 0 -10 -27
-10 -60 0 -33 -4 -60 -10 -60 -6 0 -10 -27 -10 -60 0 -33 -4 -60 -10 -60 -5 0
-10 -15 -10 -34 0 -19 -4 -38 -10 -41 -6 -4 -10 -66 -10 -155 0 -95 -4 -150
-10 -152 -17 -5 -19 -290 -2 -295 8 -3 12 -27 12 -74 0 -39 4 -69 10 -69 6 0
10 -26 10 -59 0 -33 4 -63 10 -66 5 -3 10 -30 10 -60 0 -30 5 -57 10 -60 6 -3
10 -22 10 -41 0 -19 5 -34 10 -34 6 0 10 -18 10 -39 0 -22 4 -43 10 -46 5 -3
10 -21 10 -40 0 -19 5 -37 10 -40 6 -3 10 -17 10 -31 0 -13 5 -24 10 -24 6 0
10 -18 10 -39 0 -22 5 -43 10 -46 6 -3 10 -15 10 -25 0 -11 9 -35 20 -55 11
-20 20 -44 20 -55 0 -11 5 -20 10 -20 6 0 10 -9 10 -20 0 -11 5 -20 10 -20 6
0 10 -9 10 -19 0 -11 4 -23 10 -26 5 -3 10 -14 10 -24 0 -19 80 -183 102 -209
8 -9 27 -42 42 -73 14 -32 33 -62 41 -69 8 -7 15 -19 15 -26 0 -8 4 -14 8 -14
5 0 15 -12 23 -27 8 -16 22 -37 32 -47 9 -11 17 -26 17 -33 0 -7 4 -13 8 -13
5 0 15 -12 23 -28 8 -15 34 -49 59 -75 25 -27 47 -54 49 -60 2 -7 22 -30 43
-52 21 -22 38 -45 38 -50 0 -14 283 -295 296 -295 6 0 23 -13 39 -30 16 -16
34 -30 40 -30 6 0 31 -21 55 -46 25 -25 60 -52 78 -61 17 -8 32 -19 32 -24 0
-5 6 -9 13 -9 6 0 26 -14 44 -30 18 -17 39 -30 47 -30 9 0 16 -4 16 -10 0 -5
6 -10 14 -10 7 0 19 -7 26 -15 7 -8 36 -26 66 -41 30 -14 54 -30 54 -35 0 -5
9 -9 19 -9 11 0 21 -3 23 -7 4 -11 128 -73 144 -73 8 0 14 -3 14 -7 0 -11 50
-33 71 -33 10 0 21 -5 24 -10 3 -6 15 -10 26 -10 10 0 19 -4 19 -10 0 -5 11
-10 24 -10 14 0 28 -4 31 -10 3 -5 15 -10 26 -10 10 0 19 -4 19 -10 0 -5 11
-10 24 -10 14 0 28 -4 31 -10 3 -5 19 -10 36 -10 16 0 29 -4 29 -10 0 -5 18
-10 40 -10 22 0 40 -3 40 -7 0 -13 53 -33 87 -33 18 0 33 -4 33 -10 0 -6 27
-10 60 -10 33 0 60 -4 60 -10 0 -5 11 -10 24 -10 14 0 28 -4 31 -10 3 -5 44
-10 90 -10 46 0 87 -4 90 -10 8 -13 242 -13 250 0 8 13 122 13 130 0 8 -14
402 -14 410 0 3 6 26 10 50 10 24 0 47 5 50 10 3 6 21 10 40 10 19 0 37 5 40
10 3 6 21 10 40 10 19 0 37 5 40 10 3 6 21 10 40 10 19 0 37 5 40 10 3 6 21
10 40 10 19 0 37 4 40 10 3 5 21 10 40 10 19 0 37 5 40 10 3 6 15 10 25 10 11
0 35 9 55 20 20 11 42 20 50 20 8 0 30 9 50 20 20 11 41 20 48 20 18 0 394
190 408 206 6 8 17 14 24 14 6 0 20 9 30 20 10 11 24 20 32 20 7 0 13 5 13 10
0 6 7 10 16 10 8 0 29 13 47 30 18 16 37 30 42 30 6 1 37 28 70 60 34 34 69
60 80 60 13 0 86 66 202 183 99 100 182 187 184 194 2 6 34 43 72 81 37 38 67
74 67 79 0 5 14 22 30 38 17 16 30 34 30 40 0 7 9 20 20 30 11 10 20 24 20 30
0 7 7 18 15 25 9 7 25 32 35 55 10 23 26 48 35 55 8 7 15 18 15 25 0 6 9 20
20 30 11 10 20 28 20 40 0 13 7 28 15 35 15 13 85 148 85 166 0 6 18 46 40 89
22 43 40 86 40 96 0 10 5 21 10 24 6 3 10 17 10 30 0 13 5 27 10 30 6 3 10 17
10 30 0 13 5 27 10 30 6 3 10 17 10 30 0 13 5 27 10 30 6 3 10 19 10 34 0 15
8 43 17 62 9 19 19 60 21 92 3 31 8 57 12 57 9 0 18 47 26 135 3 33 9 69 14
80 42 94 23 923 -21 951 -5 3 -9 25 -9 49 0 24 -4 47 -10 50 -5 3 -10 26 -10
51 0 25 -9 64 -20 86 -11 23 -20 54 -20 69 0 15 -4 31 -10 34 -5 3 -10 17 -10
30 0 13 -4 27 -10 30 -5 3 -10 17 -10 30 0 13 -4 27 -10 30 -5 3 -10 17 -10
30 0 13 -4 27 -10 30 -5 3 -10 15 -10 25 0 11 -9 35 -20 55 -11 20 -20 42 -20
49 0 16 -62 140 -72 144 -5 2 -8 9 -8 16 0 18 -24 66 -32 66 -5 0 -8 6 -8 13
0 18 -28 75 -41 82 -5 4 -18 25 -28 48 -11 23 -31 53 -45 66 -14 14 -26 30
-26 37 0 6 -7 17 -15 24 -9 7 -25 32 -35 55 -10 23 -26 48 -35 55 -8 7 -15 18
-15 24 0 7 -18 30 -40 51 -22 21 -40 44 -40 50 0 13 -462 475 -476 475 -6 0
-23 14 -39 30 -16 17 -34 30 -40 30 -6 0 -24 14 -40 30 -16 17 -34 30 -40 30
-7 0 -20 9 -30 20 -10 11 -23 20 -30 20 -7 0 -20 9 -30 20 -10 11 -24 20 -30
20 -7 0 -18 7 -25 15 -7 8 -37 27 -69 41 -31 15 -64 34 -73 42 -23 19 -229
122 -245 122 -7 0 -28 9 -48 20 -20 11 -42 20 -50 20 -8 0 -30 9 -50 20 -20
11 -44 20 -55 20 -10 0 -22 5 -25 10 -3 6 -17 10 -30 10 -13 0 -27 5 -30 10
-3 6 -17 10 -30 10 -13 0 -27 5 -30 10 -3 6 -21 10 -40 10 -19 0 -37 5 -40 10
-3 6 -17 10 -30 10 -13 0 -27 5 -30 10 -3 6 -26 10 -50 10 -24 0 -47 5 -50 10
-3 6 -17 10 -30 10 -13 0 -27 5 -30 10 -3 6 -39 10 -79 10 -39 0 -76 4 -81 9
-15 14 -87 22 -241 27 -95 4 -144 2 -149 -5z m-121 -323 c4 -57 9 -131 12
-165 l6 -63 -36 0 -36 0 -1 50 c-1 28 -3 55 -4 60 -1 6 -3 15 -4 20 -1 11 -53
13 -100 4 l-31 -6 3 -72 2 -71 -30 0 -30 0 -11 160 c-7 88 -10 163 -7 168 2 4
17 7 34 7 28 0 29 -1 29 -49 0 -27 3 -56 6 -65 7 -17 47 -21 103 -10 l31 6 -6
64 -6 64 34 0 35 0 7 -102z m318 -62 c32 -88 58 -163 58 -168 0 -4 -16 -8 -35
-8 -31 0 -35 3 -46 40 l-12 40 -67 0 c-62 0 -68 -2 -78 -25 -7 -14 -12 -32
-12 -40 0 -11 -12 -15 -41 -15 -22 0 -39 4 -37 8 2 4 30 81 62 171 l59 162 46
-3 45 -3 58 -159z m264 119 c50 -9 85 -22 100 -36 71 -67 45 -243 -42 -284
-38 -18 -42 -18 -139 -4 -89 13 -84 -4 -53 196 25 163 13 151 134 128z m-998
-21 c32 -22 47 -54 31 -65 -22 -14 -56 -10 -63 6 -6 17 -58 20 -87 5 -10 -6
-19 -19 -19 -30 0 -22 13 -26 103 -34 72 -6 103 -25 116 -72 22 -79 -40 -137
-147 -138 -50 -1 -56 2 -90 38 l-36 40 33 13 c31 13 34 12 56 -12 26 -27 54
-32 88 -14 67 36 43 71 -53 80 -91 8 -124 30 -128 86 -5 68 46 110 138 112 20
1 46 -6 58 -15z m1362 -69 c41 -14 84 -35 97 -47 60 -56 47 -183 -27 -257 -43
-42 -81 -44 -190 -9 -36 11 -68 22 -72 25 -5 3 38 137 97 301 6 16 10 16 95
-13z m-1925 -229 l50 -124 75 30 c70 28 75 28 87 12 7 -10 13 -21 13 -25 0
-10 -170 -80 -198 -82 -24 -2 -40 29 -118 231 l-24 63 22 9 c13 5 28 9 33 9 6
0 33 -55 60 -123z m2355 55 c0 -3 -7 -78 -15 -166 -8 -88 -15 -165 -15 -172 0
-9 -8 -9 -32 2 -31 13 -33 16 -30 57 3 43 3 43 -49 68 -29 14 -55 26 -59 28
-4 2 -21 -9 -38 -23 -30 -25 -32 -25 -62 -10 l-30 16 132 118 133 118 33 -15
c17 -9 32 -18 32 -21z m-2001 -1 c8 -23 7 -32 -2 -35 -7 -2 -33 -10 -59 -18
-51 -17 -52 -16 -61 23 -6 23 -2 27 46 42 29 8 55 16 59 17 3 0 11 -13 17 -29z
m-549 -21 c7 -11 10 -22 8 -23 -2 -1 -34 -20 -73 -40 -38 -21 -72 -40 -74 -42
-5 -5 20 -64 28 -64 3 0 38 18 77 39 l72 39 11 -25 c7 -14 10 -27 9 -28 -2 -1
-33 -19 -70 -39 -38 -21 -68 -39 -68 -41 0 -6 42 -75 45 -75 1 0 34 18 71 40
78 45 89 48 104 20 9 -17 2 -23 -57 -58 -84 -49 -154 -84 -157 -80 -9 11 -145
265 -148 275 -3 13 176 123 199 123 7 0 17 -9 23 -21z m2758 -96 c20 -18 20
-19 -64 -153 -46 -74 -88 -136 -93 -138 -4 -1 -18 6 -30 16 l-23 18 59 94
c129 206 116 193 151 163z m-1103 -92 c447 -80 837 -267 1172 -561 37 -33 73
-60 78 -60 10 0 85 121 85 137 0 4 -26 33 -57 65 -64 65 -61 68 42 43 33 -8
65 -14 70 -15 6 0 28 29 49 65 21 36 42 68 47 71 5 3 9 -14 10 -38 0 -24 3
-61 7 -83 l7 -40 85 -16 85 -16 -45 -21 c-25 -11 -62 -27 -83 -36 -29 -12 -37
-20 -33 -33 6 -22 9 -66 7 -113 l-2 -35 -53 58 c-29 31 -57 57 -62 57 -5 0
-41 -14 -80 -32 l-72 -32 69 -76 c300 -331 500 -714 583 -1115 49 -235 61
-568 31 -800 -55 -418 -224 -820 -484 -1150 -89 -114 -308 -327 -427 -417
-958 -717 -2286 -613 -3111 245 -338 352 -538 750 -630 1252 -14 81 -18 152
-18 375 0 242 3 290 23 400 129 713 546 1302 1172 1655 253 143 577 248 875
284 141 17 522 6 660 -18z m-2244 -321 c23 -38 46 -70 53 -70 6 1 38 7 71 15
101 25 104 21 42 -42 -32 -32 -57 -63 -57 -70 0 -7 18 -40 40 -75 21 -34 37
-64 35 -66 -2 -3 -39 10 -81 29 l-76 33 -51 -57 c-29 -32 -54 -57 -57 -57 -3
0 -4 37 -2 83 l3 82 -76 30 c-41 16 -75 33 -75 36 0 4 33 12 73 19 103 16 97
11 97 84 0 58 6 96 16 96 2 0 22 -31 45 -70z m-452 -430 c23 -38 45 -70 49
-70 4 1 36 7 72 15 36 8 71 14 78 15 8 0 -11 -28 -41 -63 l-55 -62 43 -70 c24
-38 42 -71 40 -73 -2 -3 -39 11 -81 29 l-77 34 -59 -65 -59 -65 6 90 6 90 -75
30 c-42 17 -76 33 -76 37 0 3 33 12 73 19 40 6 78 19 85 27 6 9 12 39 12 68 0
46 7 84 15 84 1 0 21 -31 44 -70z m4670 -94 c9 -2 46 -10 83 -16 37 -7 66 -16
63 -20 -3 -4 -35 -20 -72 -35 -38 -15 -70 -31 -73 -36 -4 -5 -3 -44 1 -86 4
-43 6 -79 5 -81 -2 -2 -27 24 -56 57 -29 34 -58 61 -65 61 -7 0 -43 -14 -80
-31 -37 -16 -69 -29 -71 -27 -2 2 15 33 36 69 22 35 40 68 40 72 0 5 -22 34
-50 65 -27 30 -48 57 -46 60 3 2 39 -3 82 -12 62 -13 79 -14 86 -4 5 7 21 33
35 58 47 81 47 81 57 -8 7 -62 13 -83 25 -86z m-4990 -448 c56 -96 48 -91 135
-74 41 9 81 16 88 16 7 0 -13 -26 -45 -58 -31 -32 -57 -62 -57 -67 0 -5 18
-39 40 -76 22 -37 40 -70 40 -73 0 -2 -33 11 -74 30 -41 19 -78 34 -83 34 -4
0 -31 -27 -58 -59 -28 -33 -52 -60 -55 -60 -3 -1 -4 38 -2 86 l4 88 -76 30
c-42 16 -76 33 -76 37 0 4 21 10 48 13 91 13 117 21 119 35 1 8 5 45 8 83 4
37 8 67 10 67 2 0 17 -24 34 -52z m5367 -128 c46 -6 84 -15 84 -19 0 -3 -34
-19 -76 -36 -42 -16 -77 -32 -79 -35 -1 -3 1 -41 5 -85 4 -44 5 -82 3 -84 -3
-4 -45 42 -94 103 -16 20 -17 20 -85 -9 -38 -15 -75 -33 -81 -38 -26 -19 -13
19 27 78 22 33 40 63 40 67 0 4 -25 34 -56 67 -31 34 -50 61 -43 61 8 -1 43
-7 79 -15 36 -8 70 -14 75 -15 6 0 31 33 55 73 l45 72 9 -86 8 -86 84 -13z
m-5045 -1894 c35 15 67 32 70 37 4 5 12 8 18 6 7 -3 -8 -34 -35 -78 l-46 -74
58 -58 c32 -32 56 -60 53 -63 -2 -2 -37 2 -77 11 -40 8 -79 12 -87 10 -7 -3
-31 -35 -53 -72 -35 -58 -40 -63 -46 -43 -3 13 -6 46 -6 73 0 28 -4 56 -8 62
-4 7 -43 18 -85 25 -43 6 -76 16 -74 21 1 5 34 22 72 37 l70 28 -3 89 -2 88
58 -64 58 -64 65 29z m4780 21 c-1 -34 -4 -69 -7 -78 -3 -13 14 -24 76 -49 45
-18 78 -36 73 -40 -4 -4 -42 -13 -84 -20 l-77 -12 -8 -87 -9 -86 -44 73 c-48
80 -48 80 -146 57 -33 -8 -64 -15 -69 -15 -5 0 16 27 47 59 32 33 57 64 57 70
0 6 -18 40 -41 77 -22 36 -39 68 -37 70 2 2 36 -12 76 -31 40 -19 74 -35 77
-35 5 0 20 16 70 73 22 25 42 43 44 41 3 -2 3 -32 2 -67z m-4463 -578 c39 17
73 31 76 31 13 0 4 -19 -34 -80 l-41 -62 57 -60 c31 -32 54 -61 51 -64 -3 -3
-39 2 -81 11 -41 9 -80 14 -85 11 -6 -4 -28 -37 -50 -73 -45 -75 -49 -72 -53
32 l-3 70 -82 15 c-45 8 -84 18 -88 21 -3 3 29 19 72 36 l78 29 -3 85 -3 84
59 -58 59 -59 71 31z m4155 -1 l-5 -83 71 -29 c39 -16 74 -32 76 -36 3 -4 -26
-13 -63 -20 -103 -18 -102 -18 -102 -54 0 -48 -12 -126 -19 -126 -3 0 -21 26
-39 58 -18 31 -36 63 -41 70 -6 10 -22 9 -80 -3 -110 -23 -112 -21 -48 43 31
32 57 62 57 67 0 6 -18 39 -39 75 -22 36 -38 66 -36 68 1 2 38 -12 80 -29 l78
-33 50 57 c27 31 53 57 58 57 4 0 5 -37 2 -82z m-3706 -429 c39 17 76 31 82
31 6 0 -10 -32 -35 -71 l-45 -71 57 -59 c31 -33 55 -62 53 -64 -2 -2 -37 3
-77 12 -40 8 -79 12 -86 10 -7 -3 -31 -35 -52 -72 -35 -59 -40 -64 -45 -43 -4
13 -7 49 -8 80 -1 31 -5 59 -10 62 -5 3 -43 11 -85 18 -42 6 -76 15 -76 18 0
7 33 22 114 55 l38 15 -6 87 -7 88 58 -64 58 -64 72 32z m3258 59 c-2 -18 -6
-56 -9 -85 l-5 -51 81 -35 c44 -19 76 -37 72 -40 -5 -3 -44 -10 -86 -17 l-77
-13 -6 -76 c-4 -42 -8 -80 -9 -86 -1 -5 -22 23 -45 63 -26 43 -50 72 -60 72
-9 -1 -45 -7 -81 -15 -36 -8 -69 -14 -75 -15 -5 0 11 21 36 48 78 82 77 73 30
151 -22 38 -41 72 -41 75 0 3 35 -11 79 -30 l78 -36 58 61 c32 34 59 61 61 61
1 0 1 -15 -1 -32z m-2630 -521 c40 -23 63 -62 52 -90 -8 -22 -47 -10 -57 19
-10 27 -45 48 -66 40 -25 -10 -15 -30 36 -74 42 -36 50 -49 50 -78 0 -45 -37
-84 -80 -84 -42 0 -94 23 -114 51 -16 24 -23 89 -8 89 22 -1 51 -13 46 -21
-16 -26 42 -75 76 -64 33 11 23 40 -30 84 -41 34 -50 48 -50 74 0 37 7 49 35
65 31 17 66 14 110 -11z m1938 -7 c29 -23 67 -115 67 -161 0 -43 -17 -69 -55
-85 -37 -15 -71 -8 -94 19 -10 13 -9 17 8 26 10 6 33 8 49 5 24 -5 31 -2 37
15 3 11 2 29 -4 38 -6 10 -11 13 -11 7 0 -17 -43 -32 -73 -27 -15 3 -37 17
-49 32 -15 19 -19 21 -13 6 4 -11 10 -46 13 -77 4 -53 2 -59 -26 -88 -41 -41
-100 -40 -122 1 -14 25 21 45 49 27 25 -15 51 4 51 38 0 25 -9 30 -26 15 -36
-36 -107 -6 -122 52 -25 94 79 158 147 90 l27 -28 1 35 c2 69 89 105 146 60z
m-1784 -49 c12 -8 6 -31 -29 -135 -44 -125 -54 -139 -87 -118 -10 6 -2 39 29
135 43 128 52 140 87 118z m68 -17 c17 -5 29 -26 55 -103 l32 -96 19 80 c10
44 20 82 22 84 2 2 15 1 28 -3 l24 -6 -30 -130 -31 -131 -30 3 c-28 3 -31 8
-61 97 -17 52 -34 88 -37 80 -3 -7 -11 -45 -19 -82 -12 -66 -14 -68 -38 -62
-35 9 -35 9 -23 47 6 18 20 77 32 131 12 53 25 97 28 97 4 0 17 -3 29 -6z
m1350 -60 c24 -31 43 -95 43 -149 0 -72 -98 -126 -144 -79 -32 31 -4 64 35 40
25 -14 49 0 49 29 0 22 -3 24 -19 15 -33 -17 -61 -11 -92 19 -22 23 -29 39
-29 69 0 85 104 121 157 56z m-205 -110 c24 -155 23 -164 -7 -164 -27 0 -29 6
-40 95 -11 87 -12 89 -46 64 -24 -17 -29 -18 -30 -5 -1 9 -2 20 -3 25 -2 15
85 102 98 98 6 -2 19 -53 28 -113z m-745 72 c13 -15 23 -36 23 -47 0 -29 -44
-25 -64 6 -19 28 -60 34 -91 11 -27 -20 -34 -120 -10 -146 23 -26 60 -25 85 0
14 14 28 18 45 14 33 -8 31 -19 -5 -56 -29 -28 -35 -30 -87 -26 -48 4 -61 10
-85 37 -23 26 -28 40 -28 86 0 107 47 158 139 152 44 -3 59 -9 78 -31z m246 6
c12 -3 17 -12 15 -26 -3 -20 -8 -21 -75 -18 l-73 4 0 -31 0 -30 67 -3 c60 -3
66 -5 69 -25 4 -22 1 -23 -65 -23 -64 0 -69 -2 -73 -23 -8 -41 1 -47 62 -47
71 0 90 -6 90 -31 0 -18 -7 -19 -107 -17 -101 3 -108 4 -106 23 1 11 3 73 4
138 l1 118 86 -2 c47 -1 94 -4 105 -7z m255 -169 c-3 -26 -7 -28 -55 -31 -50
-3 -53 -2 -53 22 0 29 10 34 68 35 42 1 43 0 40 -26z"/>
<path d="M3346 5937 c-10 -29 -21 -58 -23 -64 -4 -9 8 -13 41 -13 25 0 46 4
46 8 0 10 -35 111 -41 117 -3 2 -13 -19 -23 -48z"/>
<path d="M3686 5961 c-7 -11 -37 -203 -32 -208 8 -9 76 -15 99 -9 49 12 76
141 40 185 -18 21 -99 45 -107 32z"/>
<path d="M4052 5862 c-23 -43 -63 -185 -56 -192 5 -4 26 -13 47 -20 32 -10 42
-9 63 5 28 18 54 71 61 125 6 40 -10 60 -70 85 -34 14 -37 14 -45 -3z"/>
<path d="M4412 5657 l-42 -43 29 -17 c16 -9 33 -17 39 -17 9 0 28 108 20 116
-2 2 -23 -16 -46 -39z"/>
<path d="M3080 5164 c0 -274 5 -324 30 -324 6 0 10 109 10 285 l0 285 130 0
130 0 0 -96 c0 -72 3 -95 13 -92 8 3 13 38 15 116 l3 112 -166 0 -165 0 0
-286z"/>
<path d="M3447 5183 c-22 -42 -29 -73 -19 -73 5 0 15 14 22 31 18 43 30 19 30
-62 0 -77 21 -197 50 -284 21 -63 21 -48 1 70 -6 33 -11 115 -11 183 0 68 -5
132 -10 143 -15 28 -47 24 -63 -8z"/>
<path d="M3389 5143 c-23 -26 -18 -130 9 -183 l22 -45 -7 50 c-10 63 -9 143 1
173 10 26 -5 30 -25 5z"/>
<path d="M2867 5092 c-19 -20 -23 -62 -7 -62 6 0 10 8 10 19 0 10 7 24 15 31
12 10 18 6 35 -22 11 -18 25 -49 31 -68 45 -136 159 -297 266 -371 51 -36 213
-120 213 -111 -1 4 -40 30 -88 57 -158 91 -276 231 -361 431 -29 69 -63 114
-84 114 -8 0 -21 -8 -30 -18z"/>
<path d="M3304 5056 c-8 -20 14 -95 42 -143 34 -58 38 -54 12 10 -11 28 -23
73 -25 100 -5 46 -18 61 -29 33z"/>
<path d="M2843 4995 c-15 -40 76 -185 116 -185 14 1 14 2 1 13 -30 23 -79 102
-90 145 -12 45 -17 51 -27 27z"/>
<path d="M3270 4933 c0 -33 30 -98 60 -132 31 -36 33 -20 5 40 -14 30 -25 63
-25 75 0 20 -17 44 -32 44 -4 0 -8 -12 -8 -27z"/>
<path d="M2833 4894 c-10 -26 86 -176 130 -203 10 -7 17 -9 14 -4 -3 4 -30 48
-61 97 -31 49 -56 95 -56 102 0 21 -20 27 -27 8z"/>
<path d="M3234 4825 c-16 -38 -19 -161 -5 -170 6 -3 13 16 16 42 4 27 11 61
16 77 12 39 11 86 -2 86 -5 0 -17 -16 -25 -35z"/>
<path d="M2840 4743 c0 -38 40 -85 101 -116 l54 -28 -35 28 c-59 47 -91 85
-97 115 -7 35 -23 37 -23 1z"/>
<path d="M3521 4635 c-15 -23 -25 -54 -28 -88 l-4 -52 26 60 c50 114 53 148 6
80z"/>
<path d="M3654 4596 c-18 -8 -56 -40 -85 -71 -30 -32 -97 -92 -149 -135 -104
-84 -200 -181 -200 -201 0 -7 11 2 24 20 13 18 75 73 137 122 62 50 147 123
189 163 56 54 87 75 119 83 34 9 40 9 31 -2 -8 -10 -8 -15 1 -21 7 -4 18 1 26
11 10 15 16 16 25 7 17 -17 38 -15 38 3 0 34 -95 47 -156 21z"/>
<path d="M2860 4592 c0 -10 59 -48 93 -61 36 -14 110 -14 102 -1 -3 6 -17 10
-30 10 -13 0 -45 9 -72 21 -78 34 -93 39 -93 31z"/>
<path d="M3800 4543 c-33 -13 -86 -83 -127 -170 -60 -125 -120 -186 -248 -251
-71 -35 -186 -72 -226 -72 -16 0 -29 -4 -29 -10 0 -15 47 -12 130 10 95 25 98
25 72 -3 -26 -27 -28 -47 -7 -47 13 0 15 -20 15 -120 0 -104 -2 -120 -16 -120
-9 0 -55 -21 -103 -47 l-87 -46 -44 -131 c-25 -72 -89 -232 -143 -356 -143
-327 -167 -378 -210 -448 -22 -35 -38 -65 -35 -67 4 -5 236 93 254 107 7 5 15
30 19 56 3 26 11 64 17 85 l11 37 216 0 216 0 70 -121 c75 -130 102 -159 146
-159 23 0 117 55 193 114 25 20 14 45 -24 53 -41 8 -76 52 -149 187 -58 109
-234 512 -274 631 -17 48 -22 95 -26 241 l-6 182 64 27 c35 16 86 45 114 67
l51 38 228 0 228 0 0 165 0 165 -124 0 c-68 0 -130 2 -138 4 -7 3 -20 2 -28
-1z m260 -173 l0 -130 -205 0 -205 0 20 38 c10 20 30 64 44 96 15 32 35 73 46
91 l20 32 140 2 140 2 0 -131z m-728 -1098 l77 -177 -151 -3 c-83 -1 -153 -1
-155 2 -5 5 140 356 147 356 3 0 40 -80 82 -178z"/>
<path d="M2400 4375 l0 -165 339 0 c210 0 341 -4 343 -10 2 -5 9 -6 16 -1 7 4
10 15 6 24 -6 15 -37 17 -340 17 l-334 0 0 130 0 130 241 0 c149 0 238 -4 234
-9 -15 -25 126 -53 161 -33 17 10 16 11 -10 12 -40 0 -135 30 -168 52 -23 16
-51 18 -257 18 l-231 0 0 -165z"/>
<path d="M3450 4478 c0 -7 5 -20 10 -28 8 -12 10 -11 10 7 0 12 -4 25 -10 28
-5 3 -10 0 -10 -7z"/>
<path d="M2974 4395 c12 -9 40 -15 70 -14 l51 0 -45 15 c-25 7 -56 14 -70 14
-24 -1 -24 -1 -6 -15z"/>
<path d="M3020 4320 c0 -5 19 -10 43 -10 31 0 38 3 27 10 -20 13 -70 13 -70 0z"/>
<path d="M3113 4287 c-36 -12 -44 -27 -15 -27 11 0 27 9 37 20 10 11 16 19 14
19 -2 -1 -19 -7 -36 -12z"/>
<path d="M3020 4101 c-134 -44 -160 -56 -160 -76 0 -22 35 -18 75 9 19 14 76
41 125 62 83 34 103 44 83 44 -5 0 -60 -18 -123 -39z"/>
<path d="M3443 4054 c-20 -21 -21 -25 -7 -31 18 -7 34 12 34 40 0 21 0 21 -27
-9z"/>
<path d="M2958 4019 c-54 -27 -98 -54 -98 -59 0 -22 30 -21 62 2 18 14 53 36
78 51 125 72 95 76 -42 6z"/>
<path d="M2976 3969 c-47 -34 -86 -66 -86 -70 0 -23 39 -3 104 53 39 34 75 66
81 70 5 5 5 8 -2 8 -6 0 -49 -28 -97 -61z"/>
<path d="M3092 3978 c-7 -7 -12 -20 -12 -29 0 -9 -17 -29 -37 -45 -36 -28 -37
-23 -1 29 11 15 16 27 13 27 -14 0 -105 -84 -105 -97 0 -16 26 -17 36 -2 5 8
9 8 14 -1 5 -8 18 -1 42 23 l35 35 6 -145 c8 -218 24 -202 26 26 1 105 0 191
-1 191 -2 0 -9 -5 -16 -12z"/>
<path d="M2712 3731 c-56 -32 -133 -72 -171 -91 l-68 -33 -7 -68 c-7 -83 -39
-186 -110 -356 -89 -216 -60 -230 -229 109 -156 310 -224 428 -263 449 -30 16
-48 8 -171 -74 -100 -67 -116 -94 -52 -89 60 5 102 -54 245 -345 110 -225 229
-488 248 -550 8 -26 23 -29 51 -9 11 7 57 32 102 55 73 37 82 45 73 61 -16 31
-12 57 26 148 51 124 234 488 343 681 50 90 91 165 89 166 -2 1 -49 -23 -106
-54z"/>
<path d="M4470 3744 c-94 -19 -154 -41 -234 -88 -196 -116 -282 -243 -301
-447 -8 -88 5 -169 41 -245 28 -59 123 -184 176 -230 78 -68 213 -92 327 -58
66 19 191 93 251 147 50 46 124 145 146 196 20 48 17 138 -6 189 -24 53 -39
69 -86 88 -63 26 -136 1 -233 -80 l-41 -34 36 -12 c51 -17 120 -87 133 -135
51 -187 -66 -265 -258 -172 -95 47 -158 108 -198 194 -47 102 -64 175 -64 278
-1 184 76 285 218 285 61 0 90 -13 165 -72 l37 -29 88 58 c82 54 88 60 88 92
0 53 -40 72 -163 76 -53 2 -108 1 -122 -1z"/>
<path d="M3285 2376 c-95 -42 -134 -206 -71 -298 35 -52 70 -71 133 -75 73 -5
120 17 148 69 22 41 17 52 -26 63 -22 5 -28 2 -38 -23 -24 -56 -87 -67 -132
-23 -27 27 -29 35 -29 106 0 72 2 78 30 107 27 26 36 30 68 25 23 -4 45 -16
57 -32 22 -26 49 -32 75 -15 13 8 13 12 0 36 -26 46 -64 67 -127 71 -35 2 -70
-2 -88 -11z"/>
<path d="M2320 2350 c0 -30 1 -30 55 -30 l55 0 0 -160 0 -160 40 0 40 0 0 160
0 160 55 0 c54 0 55 0 55 30 l0 30 -150 0 -150 0 0 -30z"/>
<path d="M2670 2190 l0 -190 40 0 40 0 0 80 c0 57 4 80 13 80 38 -1 60 -18
104 -86 l48 -74 49 0 48 0 -16 25 c-9 14 -24 37 -33 53 -9 15 -29 41 -45 58
l-28 30 35 17 c53 25 70 88 41 146 -22 42 -55 51 -181 51 l-115 0 0 -190z
m214 114 c9 -8 16 -23 16 -32 0 -36 -18 -46 -84 -50 l-66 -4 0 51 0 51 59 0
c41 0 65 -5 75 -16z"/>
<path d="M3040 2190 l0 -190 40 0 40 0 0 190 0 190 -40 0 -40 0 0 -190z"/>
<path d="M3580 2190 l0 -190 40 0 40 0 0 85 0 85 70 0 70 0 0 -85 0 -85 40 0
40 0 0 190 0 190 -40 0 -40 0 0 -75 0 -75 -70 0 -70 0 0 75 0 75 -40 0 -40 0
0 -190z"/>
<path d="M3951 2343 c13 -21 45 -71 71 -112 47 -72 48 -75 48 -152 l0 -79 40
0 40 0 0 83 0 83 65 102 c36 57 65 105 65 107 0 3 -19 5 -42 5 -43 0 -43 -1
-83 -70 -22 -38 -44 -68 -48 -67 -5 1 -25 32 -46 67 -37 65 -37 65 -85 68
l-48 3 23 -38z"/>
<path d="M3010 1801 c-52 -21 -118 -46 -147 -55 -68 -22 -102 -63 -160 -185
-105 -223 -199 -460 -191 -479 2 -5 138 7 303 25 278 30 303 32 344 18 53 -18
147 -20 157 -4 11 19 169 7 627 -45 28 -3 37 0 37 10 0 55 -216 544 -265 601
-21 25 -49 44 -76 52 -23 7 -83 31 -133 53 -109 49 -183 56 -230 22 l-28 -20
-46 23 c-61 31 -81 29 -192 -16z m193 -17 l26 -19 1 -232 c0 -128 -2 -233 -4
-233 -2 0 -29 12 -61 26 -73 34 -125 30 -283 -20 -108 -34 -222 -56 -222 -42
0 3 16 44 35 90 19 47 35 93 35 103 0 10 7 28 15 40 8 11 32 65 52 119 l38 98
45 11 c25 7 82 28 125 49 90 41 151 45 198 10z m262 -2 c33 -16 90 -39 127
-51 64 -21 67 -24 84 -69 10 -26 48 -125 86 -221 37 -95 68 -175 68 -178 0 -7
-123 9 -150 19 -65 26 -229 68 -261 68 -20 0 -62 -11 -93 -25 -31 -14 -59 -25
-61 -25 -3 0 -5 106 -5 235 l0 235 33 20 c45 28 101 25 172 -8z m332 -326 c60
-152 73 -189 53 -156 -12 22 -150 359 -150 368 1 16 37 -63 97 -212z m-1046
105 c-14 -43 -29 -77 -32 -75 -4 2 -10 -8 -14 -24 -9 -38 -67 -174 -71 -169
-9 9 128 347 141 347 1 0 -9 -35 -24 -79z m427 -258 c23 -17 43 -45 54 -75 2
-4 13 -5 24 -2 15 4 20 12 17 23 -6 24 48 68 95 77 52 10 141 -8 352 -71 25
-8 65 -17 89 -20 45 -7 81 -34 81 -60 0 -20 -64 -13 -265 27 -119 24 -168 29
-238 26 -48 -3 -93 -10 -99 -16 -9 -9 -9 -12 0 -12 7 0 12 -4 12 -10 0 -5 -25
-10 -55 -10 -52 0 -55 1 -55 26 0 14 -4 22 -10 19 -5 -3 -35 -1 -66 4 -42 8
-68 8 -98 -1 -23 -6 -46 -11 -53 -9 -7 1 -52 -7 -100 -18 -161 -37 -263 -46
-263 -22 0 25 35 50 78 56 26 4 100 22 164 41 65 19 137 39 160 44 66 14 145
6 176 -17z m357 -108 l50 -13 -60 5 c-33 3 -78 9 -100 13 l-40 8 50 0 c28 0
73 -6 100 -13z"/>
<path d="M3437 1684 c-4 -4 -4 -18 -1 -30 6 -23 3 -24 -40 -24 -34 0 -46 -4
-46 -15 0 -11 12 -15 44 -15 l45 0 6 -57 c11 -107 17 -133 27 -133 7 0 8 31 4
95 l-7 95 50 0 c39 0 51 4 51 15 0 12 -13 15 -55 15 -54 0 -55 0 -55 30 0 29
-9 38 -23 24z"/>
<path d="M4187 733 c-14 -13 -7 -50 13 -68 37 -34 66 6 40 56 -10 19 -40 26
-53 12z"/>
<path d="M4007 673 c-11 -11 -8 -48 6 -67 18 -24 57 -13 57 15 0 44 -39 76
-63 52z"/>
<path d="M3812 618 c-18 -18 -15 -45 9 -69 16 -16 23 -18 35 -8 21 17 18 66
-5 79 -24 13 -24 13 -39 -2z"/>
</g>
</svg>
